<svg width="16" height="16" viewBox="0 0 16 16" fill="none" xmlns="http://www.w3.org/2000/svg">
<path fill-rule="evenodd" clip-rule="evenodd" d="M5.33753 0.444219C5.33755 0.326516 5.38431 0.213639 5.46751 0.13039C5.55072 0.0471415 5.66358 0.000332828 5.78128 0.00025L10.2185 0C10.3362 0.000272936 10.449 0.0472113 10.5322 0.130527C10.6154 0.213842 10.6622 0.326738 10.6622 0.444469V1.54188H5.33753V0.444219ZM12.6332 15.3643C12.6219 15.5374 12.5448 15.6995 12.4179 15.8176C12.2909 15.9357 12.1236 16.0008 11.9502 15.9996H3.99859C3.82523 15.9992 3.65847 15.9331 3.53179 15.8148C3.40511 15.6964 3.3279 15.5345 3.31565 15.3616L2.63521 5.40794H13.3594L12.6333 15.3642L12.6332 15.3643ZM14.4009 4.50644H1.59912V3.47519C1.59931 3.20168 1.70803 2.93943 1.90141 2.74601C2.09479 2.55259 2.35702 2.44381 2.63053 2.44356L13.3694 2.44322C13.6429 2.44364 13.905 2.55251 14.0984 2.74595C14.2917 2.93939 14.4004 3.20161 14.4007 3.47509V4.50634L14.4009 4.50644ZM5.93875 13.6268C5.93875 13.686 5.9504 13.7446 5.97305 13.7993C5.9957 13.8539 6.0289 13.9036 6.07075 13.9455C6.1126 13.9873 6.16228 14.0205 6.21696 14.0432C6.27164 14.0658 6.33025 14.0775 6.38943 14.0775C6.44862 14.0775 6.50722 14.0658 6.5619 14.0432C6.61658 14.0205 6.66627 13.9873 6.70812 13.9455C6.74997 13.9036 6.78317 13.8539 6.80581 13.7993C6.82846 13.7446 6.84012 13.686 6.84012 13.6268V7.30656C6.83917 7.1877 6.7913 7.07403 6.70693 6.9903C6.62256 6.90657 6.50853 6.85957 6.38967 6.85953C6.2708 6.85949 6.15674 6.90641 6.07231 6.99008C5.98788 7.07375 5.93993 7.18739 5.9389 7.30625V13.6268H5.93875ZM9.15437 13.6268C9.15437 13.7463 9.20186 13.861 9.28639 13.9455C9.37093 14.03 9.48558 14.0775 9.60512 14.0775C9.72467 14.0775 9.83932 14.03 9.92385 13.9455C10.0084 13.861 10.0559 13.7463 10.0559 13.6268V7.30656C10.0549 7.18769 10.007 7.074 9.92267 6.99026C9.83828 6.90652 9.72424 6.85951 9.60536 6.85947C9.48647 6.85943 9.37239 6.90636 9.28795 6.99004C9.20352 7.07372 9.15556 7.18737 9.15453 7.30625L9.15437 13.6268Z" fill="white"/>
</svg>
